<?xml version="1.0" standalone="no"?>
<!DOCTYPE svg PUBLIC "-//W3C//DTD SVG 20010904//EN"
 "http://www.w3.org/TR/2001/REC-SVG-20010904/DTD/svg10.dtd">
<svg version="1.0" xmlns="http://www.w3.org/2000/svg"
 width="266.000000pt" height="284.000000pt" viewBox="0 0 266.000000 284.000000"
 preserveAspectRatio="xMidYMid meet">
<metadata>
Created by potrace 1.15, written by Peter Selinger 2001-2017
</metadata>
<g transform="translate(0.000000,284.000000) scale(0.100000,-0.100000)"
fill="#000000" stroke="none">
<path d="M1235 2649 c-359 -106 -443 -131 -555 -159 -137 -36 -160 -45 -160
-63 0 -7 76 -36 176 -67 l176 -55 -1 -125 c-2 -121 -3 -126 -28 -145 -15 -13
-24 -28 -22 -41 3 -13 -9 -35 -28 -58 -41 -46 -68 -99 -94 -180 -15 -50 -29
-73 -65 -106 l-47 -43 34 7 c19 3 56 17 84 31 27 13 51 23 53 21 1 -2 -9 -18
-23 -35 -15 -17 -23 -31 -18 -31 13 0 104 63 142 99 l34 32 -6 87 c-3 48 -9
95 -12 104 -5 13 0 20 18 27 34 13 43 45 22 78 -15 22 -17 44 -13 139 2 63 7
117 11 120 6 7 87 -12 87 -20 0 -2 -7 -20 -15 -39 -8 -20 -15 -65 -15 -101 l0
-65 57 -21 c110 -41 197 -53 343 -47 155 6 257 30 434 102 61 25 111 43 112
42 1 -1 -2 -26 -7 -55 l-10 -53 62 -66 c68 -73 119 -148 139 -205 l14 -37 33
67 c19 37 54 86 78 110 25 24 45 46 45 49 0 4 -19 44 -41 89 -46 92 -96 157
-140 179 -40 21 -118 20 -135 -2 -12 -17 -13 -17 -20 0 -3 10 -5 19 -3 21 2 1
84 41 182 87 97 46 176 88 174 94 -9 32 -814 266 -909 264 -24 0 -88 -14 -143
-30z"/>
<path d="M474 2250 c-86 -49 -142 -125 -207 -285 -45 -112 -65 -118 -108 -34
-32 63 -26 96 28 152 34 35 41 46 23 37 -79 -40 -140 -118 -140 -177 1 -58 88
-190 147 -221 53 -29 67 -13 113 125 90 272 191 413 297 413 22 0 25 2 13 10
-32 21 -113 11 -166 -20z"/>
<path d="M2030 2270 c-12 -8 -9 -10 13 -10 108 0 217 -164 312 -470 21 -67 31
-80 60 -80 31 0 70 33 121 103 80 108 79 172 -4 249 -75 70 -106 82 -49 19 29
-33 47 -63 47 -77 0 -27 -43 -119 -61 -130 -18 -11 -44 26 -79 111 -17 44 -45
101 -61 127 -37 58 -119 135 -164 154 -39 16 -113 18 -135 4z"/>
<path d="M531 2173 c-39 -40 -69 -83 -94 -135 -21 -43 -37 -82 -37 -88 0 -6
16 -25 36 -42 19 -17 53 -64 76 -105 l40 -74 28 58 c29 63 111 170 155 205 26
20 27 25 22 80 -3 32 -16 80 -29 106 l-23 47 -58 3 -58 3 -58 -58z"/>
<path d="M833 1576 c-53 -59 -51 -169 2 -222 45 -45 100 -23 131 52 24 58 10
138 -31 180 -34 34 -67 31 -102 -10z"/>
<path d="M1686 1584 c-24 -25 -46 -79 -46 -114 0 -69 51 -140 101 -140 51 0
96 87 85 163 -9 55 -23 78 -23 37 0 -33 -17 -52 -39 -43 -37 14 -21 83 19 83
l22 1 -24 19 c-32 27 -63 25 -95 -6z"/>
<path d="M1120 1016 c-9 -11 -9 -19 0 -33 10 -16 10 -15 5 5 -4 13 -2 22 4 22
6 0 10 -3 10 -7 -6 -39 16 -73 122 -190 20 -21 20 -25 5 -75 -39 -134 -168
-214 -264 -164 -71 37 -115 111 -136 226 -9 46 -17 66 -29 68 -26 5 -31 -40
-13 -121 22 -96 68 -173 129 -214 117 -78 243 -41 320 95 27 48 32 53 41 38
71 -118 118 -161 191 -172 134 -20 257 101 287 281 10 57 9 68 -4 82 -24 23
-35 9 -42 -54 -13 -113 -89 -225 -163 -239 -103 -19 -192 42 -234 163 l-20 56
27 22 c16 12 24 27 20 33 -5 8 -2 10 8 6 9 -3 16 -2 16 2 0 5 15 25 33 44 33
34 33 35 18 63 -12 21 -21 26 -36 21 -34 -11 -127 -4 -142 12 -8 7 -24 14 -36
14 -18 0 -19 2 -7 10 13 9 13 10 0 10 -8 0 -26 3 -40 5 l-25 6 25 -12 c15 -7
20 -13 12 -16 -6 -3 -10 -9 -7 -14 4 -5 -2 -6 -12 -2 -17 6 -17 5 0 -14 9 -11
17 -23 17 -27 0 -5 -9 2 -20 15 -17 22 -18 25 -3 37 15 11 14 12 -6 12 -12 0
-19 4 -16 10 10 16 -21 12 -35 -4z"/>
<path d="M1258 554 c-9 -11 -39 -33 -67 -49 l-51 -30 0 -98 c0 -115 14 -153
68 -195 30 -23 45 -27 101 -27 122 0 170 62 171 222 l0 92 -32 17 c-18 9 -50
30 -70 46 l-37 29 -3 -133 -3 -133 -25 0 -25 0 -5 139 c-5 130 -6 137 -22 120z"/>
</g>
</svg>
